<?xml version="1.0" encoding="UTF-8"?><svg id="b" xmlns="http://www.w3.org/2000/svg" xmlns:xlink="http://www.w3.org/1999/xlink" viewBox="0 0 463.2999 463.3"><defs><linearGradient id="d" x1="230.9846" y1="78.9628" x2="230.9846" y2="229.9676" gradientUnits="userSpaceOnUse"><stop offset="0" stop-color="#0378be"/><stop offset=".9955" stop-color="#183d8e"/></linearGradient></defs><g id="c"><path d="M390.236,106.5437c.9706-.2206,1.629.1147,2.3112.2036.2657.0346.6178.2618.7719.1604,1.1563-.7609,1.9168.1234,2.7456.6239,2.476,1.4955,5.1061,2.6759,7.7699,3.7725,2.6232,1.0799,5.0075,2.6227,7.5892,3.7792.7945.3559,1.8484,2.7219,1.6,3.4919-.2326.721-.8793.9349-1.5554.9749-1.574.0933-3.1525.2375-4.7252.1993-3.2061-.078-6.4095-.265-9.6143-.4023-2.0108-.0862-4.0222-.1596-6.0329-.2472-.9351-.0407-1.8351.3732-2.8287-.0789-.5928-.2697-1.2077.8758-.8828,1.6843.2216.5514.5904,1.0419.8368,1.5853.567,1.2503.4159,1.6861-.7316,2.4234-1.9648,1.2625-3.9213,2.538-5.8864,3.8-1.0237.6575-1.7993,1.5605-2.5624,2.4868-.4644.5638-.4368,1.051.0377,1.5861.3961.4467.7549.9284,1.1085,1.4105.359.4894.5965,1.0365.6484,1.6497.051.6033-.2015,1.096-.7256,1.3392-.4907.2278-.7783-.2364-1.0819-.5314-.1948-.1891-.3577-.4111-.5534-.5993-1.0952-1.0535-1.9658-.9819-2.763.2857-.839,1.334-1.6787,2.632-2.8058,3.7802-1.9297,1.9656-4.2799,2.2336-6.6354,1.5745-2.9615-.8287-5.9219-1.7984-8.2898-4.0035-1.4359-1.3372-2.4275-2.9092-3.1935-4.6671-.4218-.9678-.2152-1.8143.5802-2.4979,1.5339-1.318,3.3002-2.194,5.3374-2.0999,3.5162.1626,7.0711-.1686,10.5307.8645,1.6021.4785,3.087.1684,4.3031-1.1634.8823-.9661,2.0113-1.6635,3.144-2.3156,1.0521-.6056,1.9353-1.4127,2.7743-2.2616,1.002-1.0138.8017-1.9792-.5085-2.5423-1.097-.4714-2.2493-.8165-3.337-1.3065-1.5834-.7134-1.6122-1.5575-.2641-2.59,1.2982-.9942,2.7419-1.0852,4.1877-.7205,2.1201.5347,4.293.6841,6.4359,1.0185,1.3093.2043,2.6917.0186,4.0458.0728,4.1288.1653,8.2629.3829,12.3852-.1427.4539-.0578,1.0462.103,1.1439-.6123.0914-.6692-.3561-.9657-.8682-1.2226-2.3903-1.1991-4.9537-1.9399-7.463-2.8233-.7893-.2779-1.6231-.2122-2.4289-.156-1.2186.0851-1.9991-.4357-2.3838-1.5398-.5138-1.474-.912-2.9941-2.1658-4.2431ZM366.5943,130.9115c-2.0074-.0974-4.0158-.1218-5.8803.805-2.3003,1.1434-1.9475,2.7312-.6297,4.1502.4338.467,1.001.8311,1.5556,1.1609,1.2125.7209,2.5251,1.2228,3.8453,1.7216,1.5437.5832,2.8225.3477,3.9876-.8237.4007-.4029.6596-.84.8371-1.3587.2977-.8699.5326-1.7726.9327-2.594.8432-1.7309.2557-2.924-2.0539-3.0534-.8623-.0483-1.7295-.0079-2.5944-.0079Z" fill="#124789" stroke-width="0"/><path d="M88.9885,110.9023c-1.1022.4905-1.5653,1.3827-2.1409,2.1549-.5493.7367-1.0504,1.5093-1.5578,2.2447-1.8977-.3737-2.2205-.8801-2.3458-2.6943-.3354-4.8559.9088-9.4975,1.7817-14.1925.4072-2.1907.8408-4.3772,1.1961-6.5764.0909-.5629.5992-1.3828-.3114-1.6896-.9419-.3173-1.1664.4984-1.4101,1.1788-.586,1.6359-1.269,3.2433-1.7479,4.9096-.41,1.4266-1.0236,2.732-1.698,4.0389-.6466,1.2528-1.136,2.586-1.7196,3.8725-.2913.6421-.6152,1.2817-1.4057,1.4609-.4251-.3563-.1086-.6757.0179-1.0065.679-1.7756,1.6172-3.5061,1.9441-5.3449.2535-1.4253.9531-2.595,1.3388-3.9089.8805-2.9993,2.8097-5.3421,4.6215-7.7656.3671-.4911.6739-1.1811,1.5465-.8372,1.1021.4344,1.781,1.1713,1.6984,2.1374-.0736.8601-.3102,1.7075-.4912,2.5569-.4078,1.9133-1.0094,3.7635-1.6354,5.6198-1.387,4.1131-2.863,8.2373-2.3455,12.7122.0977.8443-.1197,1.9026.7423,2.3707.9933.5395,1.6967-.401,2.4446-.8891.6366-.4155,1.2137-.9248,1.8618-1.3193.9149-.5569,1.6488-.3285,2.1688.6162.1294.2353.2246.4953.2982.7546.7417,2.6129,1.4804,5.2268,2.2068,7.844.1139.4107.0739.9193.6479.9915.5042.0634.8394-.2789,1.0293-.669.83-1.7053,2.05-3.1896,2.7873-4.9436.3403-.8094.8152-1.5345,1.321-2.2435.4321-.6058.9996-.7963,1.7122-.5608.7039.2326.8385.8069.8327,1.4307-.0173,1.8593-.3403,3.6674-.9578,5.4236-.8966,2.5499-1.3143,5.1469-.8167,7.8483.1413.7673.4654,1.446.8242,2.1135.1743.3241.3873.7111.8288.6966.5338-.0175.6548-.51.8319-.8911.1126-.2423.154-.5195.2138-.7842.3357-1.4847.8958-2.903,1.2638-4.3829.3093-1.2441,1.2785-2.1782,2.2841-2.8884,1.1393-.8046,2.7318.1222,2.8442,1.5848.0874,1.1358.0097,2.2835.0298,3.4255.0228,1.2978.093,1.3649,1.4191,1.3276.4297-.0121.8657-.0759,1.2829-.1801.413-.1031.7975-.3561,1.3702-.09-.2705,2.0405-1.1261,3.8466-2.4506,5.674-.7775-.9689-1.6964-1.6924-2.7822-2.1869-.7044-.3209-.8063-.9747-.8118-1.6495-.0106-1.2803-.5379-2.3958-1.0166-3.7614-1.228.7655-1.9753,1.5434-1.9846,2.9041-.0102,1.4757-.3596,2.9076-.8322,4.2908-.4034,1.1808-1.2158,1.2739-2.0469.3267-2.2701-2.587-3.2787-5.473-2.1447-8.8876.1523-.4585.2077-.9539.2658-1.4374.0376-.3122.08-.6841-.3427-.801-.3833-.1059-.7649-.0932-1.0285.2698-.159.2191-.297.4548-.4303.691-.5877,1.0412-1.1805,2.0797-1.7521,3.1297-.739,1.3577-1.1453,2.7613-1.0447,4.3629.1395,2.2212.2021,4.4545.0133,6.6848-.0797.9418-.3334,1.8081-.7819,2.6327-.3211.5906-.7624.7085-1.3585.4426-.992-.4425-1.6818-1.1578-2.1022-2.1641-.7056-1.6887-.5299-3.4298-.2389-5.1417.1983-1.1667.6404-2.2927.9853-3.4334.3075-1.0172.2353-2.0409.0964-3.0712-.5151-3.8223-1.0602-7.6398-1.8759-11.4122-.2156-.9971-.3858-2.0208-1.1424-2.919Z" fill="#124789" stroke-width="0"/><path d="M299.2805,52.6961c1.0861.2113,2.1314.2775,3.1538-.3219,1.0011-.5871,1.2028-1.7726,1.9915-2.6207.9881.5413,1.8687,1.1895,1.8432,2.3014-.0285,1.2421-.399,2.379-1.7272,3.0691-2.2782,1.1836-4.7171,1.9254-7.0958,2.8311-.4892.1863-1.0734.1997-1.6083.1747-1.5048-.0705-2.6001.6117-3.4794,1.7516-.1993.2583-.3985.5168-.5925.7791-1.3319,1.8013-2.8176,3.4271-4.6916,4.7113-3.971,2.721-8.1181,5.0398-12.8467,6.1754-1.7704.4252-3.5378.2598-5.3356.1921.1093-.6486.5335-.6386.9002-.64,3.7906-.0147,7.1137-1.6295,10.2266-3.4509,2.8447-1.6645,5.2841-3.9927,7.3834-6.5959.2936-.364.7342-.7855.4095-1.2935-.3362-.5261-.9144-.7624-1.5509-.6858-2.3322.2805-4.1166-.9413-5.8767-2.1712-.4153-.2901-.9017-.7887-.713-1.3703.2109-.6498.8991-.4863,1.4187-.4984,2.4989-.0585,5.0052.1566,7.4968-.1591,2.1976-.2785,4.1137-.9677,5.4885-2.9468,3.0964-4.4577,6.7643-8.496,9.7046-13.0755.3264-.5084.6069-1.2793,1.4866-.87.8626.4012,1.1733,1.2386.7512,2.1642-.4952,1.0862-1.0205,2.1648-1.6187,3.1968-1.6354,2.821-3.3147,5.6166-4.981,8.4195-.1406.2366-.2867.4605-.1372.9337Z" fill="#124789" stroke-width="0"/><path d="M201.6676,72.7521c-.6168-.4406-.4475-.9906-.5755-1.4349-1.4451-5.0142-2.3878-10.1586-3.9243-15.1493-.08-.2597-.1339-.5285-.228-.7826-.4356-1.176-.9662-1.4316-2.1235-.953-1.004.4152-2.0205.8248-2.964,1.3566-2.2906,1.2913-4.6345,1.2934-7.038.5039-.1791-.5229.2635-.5364.5055-.6974,2.6648-1.772,5.3239-3.5527,8.0011-5.3058,1.2145-.7953,1.7022-1.7516,1.4071-3.2838-.2765-1.4359-.5731-2.8753-.8231-4.3199-.2501-1.4451-.5931-2.8695-.6462-4.3473-.0497-1.3839-.5536-2.6208-1.5978-3.5963,1.3739-.8413,2.1111-.7548,2.7829.2285.4342.6357.6762,1.3616.8599,2.1032.4314,1.7403.8467,3.4845,1.2812,5.2239.1181.4731.2659.9403.4277,1.4005.2586.7354.7714.8557,1.4216.5205.8757-.4516,1.6866-.9822,2.2808-1.8028.6376-.8807,1.304-1.7409,1.9713-2.5995.301-.3872.6583-.875,1.1975-.5323.4736.301.7259.8819.4813,1.436-.482,1.0916-.963,2.2019-1.6065,3.1999-1.1829,1.8348-1.8438,3.9414-3.092,5.7351-.2998.4308-.2352.8856-.105,1.3908,1.0972,4.2584,2.1502,8.5282,3.2387,12.7889.5517,2.1598.6538,4.3013-.186,6.4063-.3176.7962-.3312,1.7097-.9467,2.5108Z" fill="#124789" stroke-width="0"/><path d="M169.776,59.3002c1.1043-3.5746,2.075-6.8467,3.1286-10.092,1.158-3.5672,2.2641-7.1462,3.2004-10.7798.2755-1.0695.1126-2.1572.3203-3.2708.7868.0486,1.0159.6405,1.2647,1.1466.8193,1.6672,1.3701,3.4266,1.656,5.2626.1191.7646.0005,1.5071-.2738,2.2399-1.2793,3.4167-2.715,6.7777-4.6235,9.878-1.2067,1.9603-2.4715,3.9591-4.6727,5.6155Z" fill="#124789" stroke-width="0"/><path d="M71.8141,136.8315c.0396-.7238.0719-1.459-.4949-2.05-.154-.1606-.2001-.5397-.1365-.7757.5452-2.0237.8054-4.134,1.8802-5.9982.9267-1.6072,1.7457-1.6695,2.6606.0006.8321,1.5188,1.4727,3.143,2.1853,4.7263.1552.3449.2438.7193.388,1.0698.1524.3702.3838.6715.8463.6165.5171-.0615.5339-.4664.5366-.852.0078-1.1358.0028-2.2717.0028-3.3896.5415-.0903.5672.232.603.455.3863,2.4102.7801,4.8198,1.1166,7.2372.1253.8996.3674,1.9999-.6249,2.5071-.8994.4597-1.5946-.3966-2.2728-.8812-1.1868-.8478-2.0058-1.9672-2.3229-3.4265-.1032-.4748-.2635-.9442-.4546-1.3917-.4667-1.0923-1.1783-1.1889-1.9254-.2347-.4669.5963-.8321,1.2714-1.2718,1.8907-.1448.204-.2651.487-.7156.4964Z" fill="#124789" stroke-width="0"/><path d="M301.3279,78.7113c-1.6595,1.0484-3.3336,1.6963-5.2648,1.6198-1.1276-.0447-1.9331-.5257-2.6579-1.3323-1.3278-1.4776-1.9008-3.2804-2.1002-5.1686-.2227-2.1088.1991-4.2095.4789-6.3019.0192-.1438.1568-.2716.2509-.4258.705.0372.8918.5831,1.024,1.0838.6204,2.3506,2.1803,4.2024,3.382,6.2254.8159,1.3735,2.182,2.3853,3.59,3.2359.4454.2691,1.0344.363,1.2971,1.0637Z" fill="#124789" stroke-width="0"/><path d="M175.7952,56.8629c.911.515,1.0408,1.1131,1.2446,1.6538,1.2641,3.3527,2.3332,6.7615,2.9664,10.297.211,1.178.5615,2.3081,1.105,3.3888.5157,1.0254.8095,2.1103.6229,3.3004-.2156,1.3756-1.6548,2.4374-3.0145,2.1458-1.0862-.233-2.2887-1.6441-2.4278-2.7727-.2019-1.638.3746-3.1098.9889-4.5501.4644-1.0887.6128-2.1775.5066-3.3327-.1984-2.1593-.294-4.3242-.6786-6.4707-.2134-1.1908-.8431-2.1967-1.3135-3.6596Z" fill="#124789" stroke-width="0"/><path d="M381.8778,106.8052c-1.8271.1514-3.5588.9057-5.4131.9015-.2709-.0006-.5639-.0183-.8094.0726-1.9124.7081-3.8795.1722-5.817.2553-1.2189.0523-1.8993-.7545-1.8333-1.9805.0501-.9321.2528-1.8218,1.0813-2.4462.9382-.7071,1.6047-1.7443,2.7171-2.3331-.1769,2.1889.4289,3.2008,2.4552,4.0597,1.6609.7041,3.3605,1.2277,5.2121,1.1223.785-.0446,1.6059-.1499,2.4071.3484Z" fill="#124789" stroke-width="0"/><path d="M69.542,110.9604c1.2572.5233,2.0153,1.1008,2.527,1.981.1081.186.2504.3543.391.5187,1.4463,1.691,2.0935,1.6937,3.5794-.0713.4965.9216.1702,1.87.0412,2.6779-.2043,1.2794-.3071,2.5662-.4839,3.8455-.0671.486-.1039,1.0306-.6845,1.1692-.582.139-.8677-.3387-1.1449-.7355-.404-.5783-.726-1.1985-.9806-1.8633-.7169-1.8713-1.4536-3.7354-2.2167-5.5883-.2372-.576-.5836-1.107-1.028-1.9339Z" fill="#124789" stroke-width="0"/><path d="M71.1436,139.6866c1.4063,0,2.5885-.0598,3.762.0162,1.2632.0818,2.2294.7668,2.9656,1.7817.7713,1.0633.3968,1.9939-.9351,2.1666-1.5376.1994-2.882-.3224-4.0525-1.3103-.7615-.6428-1.2343-1.4797-1.74-2.6542Z" fill="#124789" stroke-width="0"/><path d="M74.8801,95.8206c-1.4821-2.6431-2.3519-5.7586-5.5078-7.2002,1.9643.4263,3.9084.6056,5.6584,1.4751,1.573.7815,1.9585,2.0783,1.1442,3.6672-.3223.6287-.6608,1.2492-1.0041,1.8667-.0417.075-.1593.1078-.2907.1912Z" fill="#124789" stroke-width="0"/><path d="M412.9581,269.0747c-1.0185-.7937-2.0431-1.4329-3.4229-1.0006-.422.1323-.8523-.0993-1.2776-.1818-.2879-.0558-.645-.2535-.8541.314.7538.696,1.2115,1.7759,2.1883,2.2716.7982.4049,1.706-.0414,2.566-.0923.1081-.0063.2179-.0127.3252-.0026,1.1456.1085,1.6663.7963,1.3543,1.8914-.2075.7282-.4995,1.4319-.9414,2.0681-.8992,1.2951-2.2002,1.6606-3.7744,1.548.1906.7704.4885,1.3975.9754,1.7863.9436.7534.7819,1.573.3836,2.476-.4277.9694-1.1775,1.3763-2.2238,1.2601-.4092-.0455-.8456-.1898-1.1734.2475.0786.1857.109.3574.2064.4723,1.2459,1.4707,1.3874,3.1316.8518,4.905-.4091,1.3545-.9256,2.669-1.5168,3.9548-.4747,1.0323-.8439,2.1244-1.7421,2.9975-.7832-.2024-1.0034-.8129-1.3302-1.2842-.7877-1.1362-1.7912-2.0183-2.9093-2.818-.7668-.5485-1.4647-.5422-2.2794-.191-1.8525.7986-2.6487,2.3362-2.9781,4.1906-.4977,2.8019,1.2662,5.232,4.0739,5.6618.4832.074.9739.1147,1.4489.2238,1.1718.2693,1.2016.3424.9263,1.5697-.1563.696-.4103,1.3518-.7714,1.9661-.798,1.3571-1.6204,2.7003-2.2566,4.1462-.1745.3967-.3981.7575-.7497,1.0486-1.1948.9891-2.4509,1.059-4.0461.0676-1.245-.7737-2.4159-1.6653-3.6447-2.4662-1.333-.8689-2.6949-1.6935-4.3019-2.6987.3501,1.6764.7926,2.935,1.7845,3.9132.4118.4061.6506.8414.7721,1.3885.2945,1.325.5435,2.6659.9391,3.9613.5234,1.7137,1.1392,3.4026,2.7124,4.5073,1.0896.765,1.7529.7597,2.7678-.1191.8551-.7405,1.3696-1.6922,1.532-2.8023.1386-.9471.6264-1.4805,1.5784-1.5507,1.466-.108,2.4146-1.0747,3.0726-2.178.8251-1.3834,1.7601-2.7433,2.1525-4.3589.1006-.4143.2544-.853.5074-1.1866,1.2537-1.6527,1.5735-3.5686,1.5132-5.5477-.0219-.721.2337-1.1012.7359-1.4777.7837-.5877,1.4085-1.2814,1.9447-2.1438,1.2794-2.0578,1.8511-4.3996,2.8554-6.5631.4351-.9376.5108-1.9254-.0434-2.9705-.5897-1.1119-.3003-1.9151.8297-2.1699,1.5228-.3434,1.7613-1.4312,1.9656-2.6301.1313-.7704-.0459-1.4987-.3364-2.2254-.5189-1.2983-.4779-1.3435.8611-1.8718.1518-.0599.3096-.1043.4604-.1661,1.8212-.7469,2.4738-2.4557,1.6868-4.2649-.7237-1.6635-2.0148-2.7972-3.3981-3.8752ZM401.8084,297.2995c-.6958.2953-1.3846.66-2.1659.6779-.9328.0213-1.1622-.2978-1.3347-1.2219-.2982-1.5971.135-2.874,1.3712-3.9123.4993-.4194,1.0303-.5862,1.5971-.4064,1.1398.269,1.7744,1.0797,1.9374,2.4086.1482,1.2086-.2607,1.9683-1.4051,2.454ZM393.0864,313.229c-.2034.3163-.4224.6253-.6608.9158-.7362.8968-1.3297.8813-1.8234-.1275-.5749-1.1749-.8422-2.4457-.7275-3.7605.0825-.9444.3286-1.0793,1.6111-.7689.3747.0936.9657.4271,1.4316.994.8819,1.0734.9264,1.5695.169,2.747Z" fill="#124789" stroke-width="0"/><path d="M361.8831,360.2807c-.6654-1.7492-1.9353-3.1292-3.3268-4.3692-.2222-.198-.4785-.486-.8666-.1919-.1783.587.1605,1.1754.0953,1.7491-.0997.8769.3029,1.3967.9251,1.907.6698.5494,1.3251,1.1392,1.8793,1.8013.8002.956.6551,1.6951-.362,2.4426-.3938.2895-.7878.5849-1.2102.828-1.0733.6178-2.0574.4536-2.924-.4453-.1883-.1953-.2303-.6585-.6908-.4029-.0664.4635.2312.8351.2947,1.2592.2518,1.6814-1.2667,3.087-2.8712,2.6602-.5682-.1511-1.1335-.313-1.8736-.518-.1193.6457-.2575,1.1217-.287,1.6044-.0873,1.4308-.824,2.435-1.9816,3.1916-.7735.5055-1.5441,1.0156-2.3122,1.5294-1.5293,1.023-1.9844,1.0054-3.3645-.266-.6808-.6273-1.4205-1.1784-2.1213-1.776-2.0006-1.7064-4.3461-.2675-4.5,2.1229-.1511,2.3486.5319,4.5114,1.1956,6.6692.4227,1.374,1.5733,1.7316,2.872,1.1272,1.0324-.4806,2.0027-1.0945,3.0348-1.5761.8617-.4019,1.5484-.218,2.0505.4112.742.93,1.0412,2.2902.4487,2.8253-.6693.6042-.8852,1.3441-1.072,2.1327-.2313.976-.689,1.8131-1.3505,2.5665-1.5403,1.7548-2.9915,3.5858-4.7715,5.1231-1.3765,1.1886-2.4474,2.7097-4.0962,3.5284.2432.4683.4883.3476.6765.3165,3.408-.5632,6.1968-2.1435,8.2976-4.9374.9519-1.2659,1.6762-2.6613,2.4481-4.0227.5842-1.0303.9548-2.232.9453-3.4305-.0126-1.6223-.1442-3.2533-.3685-4.8606-.1407-1.0084.0795-1.6648.9933-2.143.6701-.3506,1.2703-.8325,1.9159-1.2327,1.1241-.6972,1.8304-1.659,2.0665-2.9823.0819-.4593.1089-.9835.5428-1.3148.4-.1552.7756-.002,1.1047.1485,1.0707.4897,1.8789.0012,2.6811-.619.638-.4932.587-1.2459.767-1.9147.3572-1.3271.9857-1.6811,2.2505-1.1627.5569.2281,1.0646.307,1.5374-.0454.9772-.7282,2.0179-1.6362,1.9774-2.8496-.0542-1.6267-.0617-3.3388-.6495-4.8836ZM338.2074,377.608c-.627-.2186-.9179-.7322-.9754-1.3745-.074-.8276.3282-1.6084,1.001-1.8795,1.061-.4277,2.0325-.02,2.9624.4302.4315.2089.2376.6592.1608,1.0243-.3085,1.014-2.2158,2.1247-3.1487,1.7994Z" fill="#124789" stroke-width="0"/><path d="M423.2822,244.0527c.047-.4617-.0635-.8064-.4085-1.1603-1.3673-1.4024-2.8102-2.5834-4.632-3.4823-2.5974-1.2815-4.858-.7696-7.109.4788-1.9366,1.0741-2.3288,2.7302-1.3477,4.7329.9783,1.9969,2.8366,2.7751,4.7941,3.327,1.7604.4965,2.2766.0862,2.7793-1.7196.4657-1.6724.6531-3.4039,1.0676-5.1834,1.5971.4661,1.8016.5375,1.6698,1.759-.425,3.9387-1.1159,7.8424-1.9425,11.7161-.2598,1.2178-1.3351,1.7483-2.4575,1.7945-1.464.0602-3.0411-.0198-4.3138-.6766-1.7061-.8804-3.608-.7659-5.3133-1.4739,0,0-.1392-.1456-.4974-.5371-.3107-.3395-.3307.3643-.2083.82-.0019.0021-.0043.0038-.0062.0059.0144.0397.0328.0774.048.1165.0082.0214.0147.0469.0236.0659.0019.004.0053.0051.0073.0089.4024.9791,1.114,1.7962,2.61,2.6703.7234.4227,1.1266.9634,1.3999,1.6938.7441,1.9889,2.1286,3.5181,3.6124,4.9696.6369.623,1.4305.9884,2.2785,1.2141,1.4519.3864,2.6161-.3407,2.8821-1.8042.165-.9077.3694-1.8273.2238-2.7519-.1169-.7428.0646-1.2641.7605-1.604,1.3425-.6556,1.9437-1.9178,2.2841-3.226,1.0022-3.8505,1.3925-7.8056,1.7952-11.7542ZM414.3434,245.2239c-.1111.6175-.2651,1.1737-1.1154,1.0295-.9202-.1561-1.2161-.4601-1.1219-1.4138.1067-1.0799.2643-2.1566,1.2383-2.8763.3312-.2448.7016-.3526,1.058-.1658.3171.1663.3324.5401.3018.864-.0455.4825-.1303.9613-.1983,1.4416-.0541.3736-.0957.7495-.1625,1.1208ZM414.6289,261.7502c-.0721.4655-.1041,1.0598-.7773,1.0325-.6207-.0252-1.3187.0482-1.7249-.6207-.3722-.613-.9391-2.9933-.919-4.0727,1.2973-.0169,2.4333.2371,3.5356.5109.3182,1.1407.0413,2.1453-.1144,3.1501Z" fill="#124789" stroke-width="0"/><path d="M372.4734,341.9665c-1.0181-.4536-2.1918-.6421-3.0496-1.7143-.8455,1.7527-.6338,3.2151.532,4.178.7074.5843,1.4551,1.2009,2.3726,1.3779,1.4898.2873,2.6374,1.2381,3.9411,1.8784.9379.4606,1.2344,1.6396.3365,2.4225-.9783.8531-1.8672,1.8082-2.8122,2.7018-1.1786,1.1145-2.3412,1.8966-4.1547,1.0628.2004,1.1781.6123,2.0741,1.0758,2.8827.7544,1.316,1.5214,1.4715,2.8424.6512,1.7665-1.097,3.2513-2.5355,4.4842-4.2072.5689-.7714.6397-1.682.5106-2.6446-.528-3.9345-2.3209-6.9153-6.0789-8.5893Z" fill="#124789" stroke-width="0"/><path d="M384.9893,319.6137c.353,1.3991,1.1562,2.3598,1.8376,3.3736.1599.2379.5356.4268.8315.459.8457.0922,1.6552.3878,2.5602.1596,1.1867-.2994,2.1046.2916,2.5148,1.4426.6077,1.7046.979,3.4799.7664,5.2741-.4022,3.3941-.8963,6.7819-2.2678,9.9634-.3843.8913-.6442,1.8199-.8014,2.9794,3.9298-1.6079,6.2979-8.8221,5.5679-13.0015-1.0856-6.2148-5.3265-9.0005-11.0093-10.6502Z" fill="#124789" stroke-width="0"/><path d="M366.7584,356.699c-1.2802-2.209-2.6192-4.387-3.8156-6.6408-1.499-2.824-3.2427-5.529-4.304-8.5756-.2108-.6051-.5358-1.1452-1.299-1.334-.4185.9889-.2284,1.8908.0055,2.778.3773,1.4314,1.0646,2.7256,1.8074,3.9983,1.5586,2.6706,3.2881,5.2664,4.5696,8.0657,1.0473,2.2878,2.6574,4.196,3.579,6.5216.1342-.0457.2684-.0916.4025-.1372-.1524-.9968-.3719-1.9894-.4327-2.9917-.0382-.6282-.2093-1.1605-.5127-1.6842Z" fill="#124789" stroke-width="0"/><path d="M403.4986,272.0505c.4171-.1939.9927-.1294,1.216-.6621-1.4548-2.6971-.9678-2.529-4.0683-1.9454-.1584.7423.3862,1.1958.7182,1.7366.4965.8084.4428,1.0804-.3207,1.588-.5325.354-1.2136.461-1.6602.9396.9412,2.6561,1.7619,2.7658,3.6934,1.5177-.0135-.3996-.2738-.6964-.4287-1.0389-.5434-1.2011-.3833-1.5619.8503-2.1356Z" fill="#124789" stroke-width="0"/><path d="M349.851,357.4284c.5743-.9009.3222-2.0944.9307-3.0025.4567.2508.8141.5036,1.2105.6531.8255.3112,1.2553.0229,1.3198-.8252.13-1.7103-.4573-2.617-2.1725-3.3497-.4354.3338-.4231.8598-.542,1.3205-.1305.5056-.2026,1.0263-.2934,1.5052-.9319.171-1.6247-.5293-2.4552-.3938-.3629,2.694-.1472,3.1403,2.0022,4.0924Z" fill="#124789" stroke-width="0"/><path d="M401.6058,240.3844c.153.1426.3729.2118.5581.3219,1.0309.6122,1.0641,1.4851.1006,2.2488-.3799.301-.9408.2936-1.232.7335,1.1574,2.6269,1.8955,2.4917,4.0568.9149-.0757-.6342-.6956-.7777-1.0538-1.1562-.7819-.8264-.5879-1.888.4404-2.3438.3344-.1481.7707-.1115.973-.6478-.138-.621-.6557-1.1387-.9642-1.7598-.197-.3967-.5794-.482-.9775-.4043-.7708.1504-1.3982.5911-1.9658,1.1003-.3519.3156-.2533.6963.0646.9925Z" fill="#124789" stroke-width="0"/><path d="M388.1955,289.0328c.286,2.5922,1.0369,3.0976,3.3668,2.1414-.2036-.884-.6669-1.5988-.3409-2.4577.402-1.0585,1.4431-.7069,2.1615-1.0038-.4554-2.6487-1.22-3.1375-3.5553-2.3429.5534,2.6838.6084,2.8259-1.632,3.6629Z" fill="#124789" stroke-width="0"/><path d="M399.0308,271.1446c-.5206-2.0869-1.564-2.8797-3.2647-2.5702-.6067.1104-.8119.4136-.6248,1.0248.5282,1.7246,1.9064,2.3129,3.8895,1.5454Z" fill="#124789" stroke-width="0"/><path d="M348.7358,350.766c.7638-2.3352.3896-3.1503-1.8507-4.0322-1.1868,2.3169-.6379,3.5128,1.8507,4.0322Z" fill="#124789" stroke-width="0"/><path d="M336.0122,362.4835c.2477-1.3722-.4171-4.8768-.3857-4.2679s-.3922,3.1477-.3922,3.1477l-.0035.0258c-.0145.0752-.0297.1497-.0477.2228-.1936.7869-.6164.8778-1.32.6723-.3656-.1068-.6973-.2768-1.0298-.4711-.0114-.0193-.614-1.046-.4151-1.5855.2009-.5445-1.2898.8673-.9807,1.9752.002.0071.0048.0122.0068.0191.0175.7303.3528,1.3391.9331,1.8665,1.0167.924,2.3143,1.4986,3.1653,2.7243.3395-.8335.5043-2.6263.4692-4.3282,0-.0004.0002-.0006.0003-.001Z" fill="#124789" stroke-width="0"/><path d="M79.6836,131.4697s-.4-4.2417,0-3.8561c.4001.3856.9229,5.0218.9229,5.0218" fill="#124789" stroke-width="0"/><path d="M75.1005,114.3458s.9504-1.8352.9022-2.8956c-.0482-1.0605.7253,2.0271.3029,4.0488-.4225,2.0217-1.2051.5341-1.2051.5341" fill="#124789" stroke-width="0"/><path d="M245.8328,306.3263c84.0323-4.9527,126.8227-42.15,129.3382-44.3977-16.2628,64.4829-74.6496,112.2129-144.1897,112.2129-63.9798,0-118.5312-40.4186-139.4985-97.1131.6012.477,22.0323,17.4977,45.4759,13.695,23.7833-3.855,41.9018-21.0783,48.2004-50.8989,6.2987-29.8207-1.6661-34.1918-6.2986-35.7338,5.789-4.3712,14.9103-10.6699,28.6641-9.9903,14.5248.6729,21.209,16.0341,16.4523,44.45-3.9726,23.7506-18.6281,46.2141-27.39,57.6092-1.2414,1.6139.3724,3.8615,2.2934,3.1951,42.4049-14.7013,75.0024-43.1629,88.0833-54.7736,13.7538-12.2118,10.4085-22.1106,7.5793-27.1221,35.479,2.1888,24.7177,27.7625,11.8263,41.7776-11.9831,13.0286-44.2474,36.2762-61.0134,45.4693-.8037.4443-.4443,1.6727.477,1.6204Z" fill="#03853f" stroke-width="0"/><path d="M376.5693,255.8456c-.4247,2.0452-.8887,4.0707-1.3983,6.0831-2.5155,2.2477-45.3059,39.445-129.3382,44.3977-.9213.0523-1.2807-1.1761-.477-1.6204,16.766-9.1931,49.0303-32.4407,61.0134-45.4693,12.8914-14.0151,23.6527-39.5888-11.8263-41.7776,2.8292,5.0115,6.1745,14.9103-7.5793,27.1221-13.0809,11.6107-45.6784,40.0723-88.0833,54.7736-1.921.6664-3.5348-1.5812-2.2934-3.1951,8.7619-11.3951,23.4174-33.8586,27.39-57.6092,4.7567-28.4159-1.9275-43.7771-16.4523-44.45-13.7538-.6796-22.8751,5.6191-28.6641,9.9903,4.6325,1.542,12.5973,5.9131,6.2986,35.7338-6.2986,29.8206-24.4171,47.0439-48.2004,50.8989-23.4436,3.8027-44.8747-13.218-45.4759-13.695-.6599-1.7772-1.2871-3.5806-1.8817-5.3905,0,0,17.6676-20.5033,61.2421-16.5176-19.7389-11.8655-38.2624-34.6688-45.1426-44.4108-.9344-1.3199-.0196-3.1428,1.6008-3.182,13.2964-.3528,41.1242,1.1695,57.5504,8.3895-10.3954-20.6732-18.7718-47.4295-17.1906-62.3529.098-.9212.9866-1.555,1.8883-1.3525,11.088,2.509,40.1376,16.4131,54.6363,30.5459,3.3976-20.536,11.2448-47.3576,28.4943-65.1232.6011-.6207,1.5942-.6142,2.215-.0131,9.3173,9.1475,24.9529,35.6554,28.161,62.0523,11.8002-11.5584,40.6604-33.9239,54.8781-35.9821.7579-.111,1.4505.4509,1.4766,1.2219.2679,8.579-.6599,26.8412-15.7401,36.8119-15.9361,10.5391-51.8006,22.4961-66.1948,46.4036-11.957,19.7911-6.4293,32.0422,17.7395,33.6953-5.2728-8.3765-3.7308-29.971,43.5745-51.5655,34.9628-15.348,47.1812-14.6163,61.7125-14.6751,1.0585-.0065,1.6988,1.1696,1.1173,2.0517-7.0696,10.7548-28.3048,37.2431-43.1693,48.1874,16.9685-2.7835,47.4686-2.7443,58.1189,10.0229Z" fill="#fff" stroke-width="0"/><path d="M379.6794,225.45c0,10.415-1.0716,20.5818-3.1101,30.3956-10.6503-12.7672-41.1504-12.8064-58.1189-10.0229,14.8645-10.9443,36.0997-37.4326,43.1693-48.1874.5815-.8821-.0588-2.0582-1.1173-2.0517-14.5313.0588-26.7497-.6729-61.7125,14.6751-47.3053,21.5945-48.8473,43.189-43.5745,51.5655-24.1688-1.6531-29.6965-13.9042-17.7395-33.6953,14.3942-23.9075,50.2587-35.8645,66.1948-46.4036,15.0802-9.9707,16.008-28.2329,15.7401-36.8119-.0261-.771-.7187-1.3329-1.4766-1.2219-14.2177,2.0582-43.0779,24.4237-54.8781,35.9821-3.2081-26.3969-18.8437-52.9048-28.161-62.0523-.6208-.6011-1.6139-.6076-2.215.0131-17.2495,17.7656-25.0967,44.5872-28.4943,65.1232-14.4987-14.1328-43.5483-28.0369-54.6363-30.5459-.9017-.2025-1.7903.4313-1.8883,1.3525-1.5812,14.9234,6.7952,41.6797,17.1906,62.3529-16.4262-7.22-44.254-8.7423-57.5504-8.3895-1.6204.0392-2.5352,1.8621-1.6008,3.182,6.8802,9.742,25.4037,32.5453,45.1426,44.4108-43.5745-3.9857-61.2421,16.5176-61.2421,16.5176-4.7436-14.5378-7.3114-30.0624-7.3114-46.188,0-82.1244,66.5737-148.6981,148.6916-148.6981s148.6981,66.5737,148.6981,148.6981Z" fill="url(#d)" stroke-width="0"/><polygon points="179.5058 326.6506 190.5599 326.6506 190.5599 357.4991 183.5547 357.4991 183.5547 334.0415 179.5058 334.0415 179.5058 326.6506" fill="#fff" stroke-width="0"/><path d="M220.3801,326.6506h-11.8895c-3.088,0-5.5913,2.5033-5.5913,5.5913v9.7365c0,1.6505,1.338,2.9885,2.9884,2.9885h13.5926v4.7879c0,.5502-.4459.9961-.9961.9961h-6.8766c-1.4376,0-2.6029-1.1653-2.6029-2.6028v-1.3175h-6.1054v5.3664c0,2.9282,2.3738,5.302,5.3021,5.302h12.4679c2.9283,0,5.3021-2.3738,5.3021-5.302v-19.9551c0-3.088-2.5033-5.5913-5.5913-5.5913ZM219.2876,337.7689c0,.6034-.4892,1.0925-1.0926,1.0925h-7.198c-.6034,0-1.0925-.4891-1.0925-1.0925v-3.0849c0-.6034.4891-1.0925,1.0925-1.0925h7.198c.6034,0,1.0926.4891,1.0926,1.0925v3.0849Z" fill="#fff" stroke-width="0"/><path d="M237.0897,357.4991h11.8895c3.088,0,5.5913-2.5032,5.5913-5.5912v-9.7366c0-1.6504-1.338-2.9884-2.9884-2.9884h-13.5926v-4.788c0-.5501.4459-.9961.9961-.9961h6.8766c1.4376,0,2.6029,1.1653,2.6029,2.6028v1.3175h6.1054v-5.3663c0-2.9283-2.3738-5.3021-5.3021-5.3021h-12.4679c-2.9283,0-5.3021,2.3738-5.3021,5.3021v19.9551c0,3.088,2.5033,5.5912,5.5913,5.5912ZM238.1822,346.3808c0-.6035.4892-1.0926,1.0926-1.0926h7.198c.6034,0,1.0925.4891,1.0925,1.0926v3.0848c0,.6034-.4891,1.0925-1.0925,1.0925h-7.198c-.6034,0-1.0926-.4891-1.0926-1.0925v-3.0848Z" fill="#fff" stroke-width="0"/><path d="M266.8456,338.3474h-5.5912v-8.0013c0-2.0409,1.6544-3.6954,3.6953-3.6954h12.0824c3.5316,0,6.3946,2.8629,6.3946,6.3946v12.1466c0,.6566-.5323,1.189-1.1889,1.189h-13.3356c-.6744,0-1.2211.5467-1.2211,1.221v2.0566c0,.6744.5467,1.2211,1.2211,1.2211h14.5245v6.6196h-22.1723v-11.8574c0-2.8218,2.2875-5.1093,5.1092-5.1093h8.1299c1.3488,0,2.4422-1.0934,2.4422-2.4422v-3.1812c0-.7277-.5899-1.3175-1.3175-1.3175h-7.4551c-.7276,0-1.3175.5898-1.3175,1.3175v3.4383Z" fill="#fff" stroke-width="0"/><circle cx="231.6499" cy="231.65" r="226.5566" transform="translate(-95.9526 231.65) rotate(-45)" fill="none" stroke="#2d245b" stroke-miterlimit="10" stroke-width="10.1867"/><path d="M50.7695,206.6184l-7.2128,5.1895c-1.0196.7392-1.7295,1.3896-2.1309,1.9511-.2974.4248-.4814.8858-.5518,1.3838l-.3857-.0547,1.2734-8.999.3863.0547c-.0308.5742-.0059.9512.0752,1.1299.0805.1787.1997.2793.3574.3017.2905.0411.9057-.2675,1.8457-.9267l4.7339-3.3789-.3574-.7051-3.9478-.5586c-.7471-.1064-1.2217-.1201-1.4233-.042-.2017.0781-.3892.252-.563.5215-.1734.2695-.3052.7236-.3955,1.3603l-.3863-.0546,1.2359-8.73.3862.0547-.0825.582c-.0703.4971-.0528.9111.0532,1.2402.0684.2325.2188.4268.4512.5811.1533.1133.5913.2207,1.3135.3232l9.5019,1.3448c.7305.1035,1.1963.121,1.3965.0537.2002-.0684.3887-.2344.5659-.4991.1773-.2636.2993-.6347.3672-1.1123l.082-.582.4112.0586-1.2212,8.6255-.4107-.0586c.0845-.5967.0777-1.0596-.0195-1.3877-.062-.2227-.2031-.4199-.4243-.5928-.1685-.1259-.6138-.2392-1.3364-.3418l-4.4957-.6367,3.4258,7.0313c.479.9804.9014,1.497,1.2666,1.5488.2657.0381.5034-.1162.7134-.4619.1016-.1787.2124-.6348.3335-1.3682l.4111.0576-.955,6.7461-.4107-.0586c.0508-.6015.0288-1.0869-.0674-1.456-.0957-.3682-.4716-1.2285-1.1274-2.5801l-2.6817-5.5547Z" fill="#124789" stroke-width="0"/><path d="M44.2818,226.923l.1987-6.1621-1.3975-.7686c-.4697-.2568-.8554-.3896-1.1572-.3994-.4106-.0127-.7188.1729-.9243.5586-.1162.2276-.2227.7969-.3194,1.709l-.3896-.0127.1875-5.8154.3896.0127c.0552.6357.2544,1.1591.5977,1.5732.3433.4131,1.0625.9287,2.1587,1.5469l11.4258,6.6426-.0078.2402-12.1582,5.9121c-1.1509.5654-1.8794,1.04-2.1851,1.4219-.227.2744-.3701.6767-.4292,1.208l-.3896-.0127.2719-8.4365.3897.0127-.0108.3466c-.0219.6729.0425,1.1524.1924,1.4385.1113.1953.2759.2959.4937.3028.1259.0039.2563-.0215.3925-.0782.0679-.0175.3399-.1396.8174-.3652l1.8531-.875ZM45.0875,226.5266l5.0996-2.4443-4.9292-2.8438-.1704,5.2881Z" fill="#124789" stroke-width="0"/><path d="M55.8731,250.2257l-4.8184.5-.04-.5263c1.1933-.3418,2.1235-1.0264,2.79-2.0547.667-1.0274.9575-2.1074.8721-3.2403-.0659-.8711-.315-1.5478-.7461-2.0293-.4317-.4814-.8985-.7031-1.3999-.665-.3262.0244-.6079.1367-.8452.3359-.3155.2754-.6197.7012-.9126,1.2784-.1953.417-.5391,1.3759-1.0318,2.874-.6816,2.1074-1.3676,3.5439-2.0581,4.3125-.6997.7578-1.5259,1.1728-2.4795,1.2451-1.2124.0908-2.3003-.3984-3.2641-1.4697-.9639-1.0713-1.5113-2.4776-1.6431-4.2217-.0415-.5508-.0327-1.0732.0269-1.5664.059-.4932.1865-1.1201.3813-1.8799.1113-.4219.1567-.7627.1372-1.0234-.0166-.2207-.1055-.4483-.2661-.6826-.1606-.2354-.3936-.4268-.6992-.5743l-.0352-.4668,5.4937-.414.0351.4658c-1.5097.4971-2.6318,1.3144-3.3657,2.4531-.7339,1.1387-1.0537,2.3291-.9599,3.5723.0727.9619.3476,1.7119.8256,2.25.4781.5381,1.0093.7851,1.5948.7412.3427-.0264.667-.1611.9721-.4063.3052-.2451.5855-.6005.8404-1.0683.2548-.4678.5732-1.2852.956-2.4531.5327-1.6319,1.0005-2.8135,1.4038-3.545.4033-.7304.8731-1.3027,1.4092-1.7158.5366-.4131,1.1436-.6455,1.8208-.6963,1.1538-.0879,2.1768.3467,3.0689,1.3018.8916.956,1.3964,2.21,1.5136,3.7637.0425.5605.0293,1.1103-.0395,1.6504-.0611.4169-.1846.9228-.3711,1.5166-.1865.5937-.271,1.0048-.2534,1.2363.0175.2295.0893.4033.2158.5195.1264.1162.4072.2139.8418.292l.0298.3906Z" fill="#124789" stroke-width="0"/><path d="M49.9639,264.4582l-4.4307.8701c-.7324.1445-1.1797.2832-1.3408.417-.1621.1338-.2852.3554-.3696.664-.085.3086-.0796.7041.0151,1.1875l.1108.5625-.3828.0752-1.7607-8.9629.3823-.0752.1133.5772c.0972.4922.2495.8769.4575,1.1543.1416.1972.3472.331.6172.4004.1821.0566.6309.0146,1.3467-.126l9.417-1.8506c.7236-.1426,1.1694-.2783,1.3359-.4082.167-.1299.2905-.3486.3711-.6562.0806-.3086.0742-.6983-.0185-1.1719l-.1138-.5772.4077-.08,1.7607,8.9628-.4072.0801-.1103-.5615c-.0972-.4932-.2505-.8828-.4605-1.1699-.1313-.1885-.334-.3281-.6079-.418-.1821-.0566-.6309-.0146-1.3467.126l-4.0605.7978,1.1885,6.0498,4.0605-.7978c.7241-.1426,1.1699-.2764,1.3379-.4014.1675-.125.2905-.3467.3691-.664.0786-.3174.0718-.7129-.0215-1.1866l-.1074-.5468.4073-.0801,1.7583,8.9482-.4073.0791-.1108-.5615c-.0986-.5029-.251-.8877-.4575-1.1543-.1353-.209-.3374-.3486-.6075-.418-.1821-.0566-.6308-.0146-1.3466.126l-9.417,1.8506c-.7324.1436-1.1797.2803-1.3423.4092-.1626.1299-.2861.3486-.3711.6572-.0845.3086-.0791.7041.0156,1.1875l.1104.5615-.3824.0752-1.7583-8.9472.3829-.0752.1074.5468c.0986.503.2519.8926.4604,1.169.1392.1875.3457.3262.6201.416.1797.0459.628-.001,1.3438-.1416l4.4307-.8701-1.1885-6.0488Z" fill="#124789" stroke-width="0"/><path d="M50.7842,293.9328l-.3716.1181-2.7666-8.7051.3716-.1181.1782.5605c.1519.4785.3472.8428.5855,1.0948.1631.1796.3823.289.6587.3281.187.0351.6284-.0576,1.3237-.2783l9.146-2.9073c.7031-.2236,1.1304-.4091,1.2812-.5576.1509-.1474.2486-.3789.294-.6943.0449-.3145-.0054-.7022-.1514-1.1612l-.1782-.5605.3955-.126,2.7666,8.7051-.3955.126-.1733-.5459c-.1524-.4795-.3492-.8487-.5904-1.1094-.1518-.1728-.3686-.2891-.6509-.3467-.1875-.0351-.6289.0576-1.3237.2783l-9.146,2.9073c-.7114.2256-1.1396.415-1.2851.5664-.1455.1513-.2427.3857-.2915.7012-.0494.3164.0009.7089.1499,1.1787l.1733.5459Z" fill="#124789" stroke-width="0"/><path d="M73.2051,311.0979l4.4546,7.8535-.3613.2041-.2232-.3926c-.3369-.5947-.6182-.9755-.8428-1.1425-.2251-.167-.4565-.2432-.6943-.2295-.2383.0136-.7148.2226-1.4292.6279l-6.2251,3.5312c-1.123.6377-1.8125,1.1641-2.0679,1.5811-.2558.416-.3715.9297-.3481,1.54.0234.6104.2383,1.2745.645,1.9913.4658.8212,1.0186,1.4345,1.6582,1.8398.6397.4053,1.313.5986,2.02.5781.7071-.0195,1.7315-.4101,3.0738-1.1709l5.1855-2.9414c.5615-.3193.9234-.6191,1.0859-.9023.1626-.2832.232-.5557.2076-.8194-.0547-.4199-.2578-.9394-.6099-1.5605l.3608-.2041,2.982,5.2568-.3609.2051-.1782-.3154c-.2383-.419-.5088-.7305-.812-.9336-.3037-.2041-.6382-.2881-1.0044-.2539-.2392.0205-.6177.1767-1.1357.4707l-4.8243,2.7373c-1.4882.8437-2.6289,1.3349-3.4228,1.4736-.7939.1377-1.729-.0908-2.8052-.6875-1.0757-.5976-2.0625-1.6865-2.9599-3.2685-.7437-1.3116-1.1695-2.4102-1.2769-3.2959-.1611-1.2022-.0454-2.1836.3477-2.9444.393-.7597,1.1147-1.4375,2.165-2.0332l6.2251-3.5312c.7217-.4092,1.1465-.7139,1.2744-.9141.1279-.1992.1748-.4482.1406-.7461-.0346-.2988-.2363-.7646-.6054-1.3984l.3613-.2051Z" fill="#124789" stroke-width="0"/><path d="M88.5401,335.8419l-2.0289,12.3379,4.9981-3.7754c.7021-.5312,1.0894-1.0058,1.1616-1.4257.0733-.584-.1875-1.2559-.7822-2.0157l.331-.25,3.48,4.6055-.3315.25c-.5083-.5478-.8897-.8857-1.1445-1.0146-.2549-.128-.5352-.1622-.8414-.1006-.3056.0605-.7363.3008-1.2915.7207l-9.6845,7.3164-.2725-.3613,2.5703-16.7325-7.3862,5.5801c-.6758.5107-.9932,1.0361-.9517,1.5781s.2408,1.0489.5982,1.5225l.2456.3242-.3111.2354-3.7343-4.9424.311-.2354c.5879.7647,1.1245,1.2002,1.6094,1.3057.4848.1064,1.0381-.0752,1.6606-.5459l8.209-6.2022.0742-.5273c.0899-.5342.0972-.9492.0215-1.2441-.0762-.2959-.2681-.6612-.5757-1.0957l.3316-.25,3.7339,4.9423Z" fill="#124789" stroke-width="0"/><path d="M94.6167,365.0392l-.2856.2656-6.2163-6.6924.2856-.2656.3999.4307c.3423.3682.6743.6152.9971.7402.2241.0938.4692.0996.7358.0166.1841-.0478.544-.3203,1.0781-.8164l7.0318-6.5312c.5405-.502.8476-.8526.9209-1.0508.0732-.1983.063-.4492-.0303-.7539-.0937-.3037-.3047-.6328-.6328-.9854l-.3999-.4316.3042-.2822,6.2158,6.6923-.3042.2832-.3896-.4199c-.3418-.3681-.6778-.6191-1.0069-.7519-.2114-.0918-.457-.1035-.7368-.0352-.1846.0479-.5439.3203-1.0786.8164l-7.0317,6.5313c-.5469.5078-.8536.8613-.9204,1.0605-.0669.1992-.0547.4522.0356.7588.0903.3066.3032.6406.6382,1.001l.3901.4199Z" fill="#124789" stroke-width="0"/><path d="M120.8452,369.969l-.2758.3105c-.5362-.3652-1.147-.5341-1.8326-.5048-.5097.0293-1.4682.3037-2.8745.8242l-11.9155,4.3076-.3154-.2803,3.2382-12.6484c.3916-1.5274.5762-2.4629.5547-2.8086-.0224-.3457-.2651-.7637-.7285-1.2559l.2764-.3095,6.2558,5.5761-.2763.3096-.2139-.1904c-.5625-.501-1.0019-.7862-1.3179-.8545-.2094-.0518-.3837,0-.5234.1572-.0835.0938-.1597.2275-.228.4024-.0684.1757-.2129.6816-.4336,1.5175l-2.0498,7.8946,6.8896-2.5186c.8262-.3086,1.3628-.5293,1.6099-.6631s.4346-.2724.563-.416c.145-.1631.2217-.3506.229-.5625.0073-.2129-.062-.4404-.209-.6836-.1992-.335-.5278-.706-.9854-1.1142l.2764-.3096,4.2866,3.8203Z" fill="#124789" stroke-width="0"/><path d="M128.3247,376.4171l-3.4009,4.8506.2964.208c.9048.6348,1.7271.8575,2.4668.669.7393-.1875,1.4937-.709,2.2637-1.5615l.395.2773-4.3896,6.2617-.395-.2773c.3857-.7432.5957-1.4278.6298-2.0537.0342-.627-.0756-1.1387-.33-1.5381-.2549-.3985-.7232-.8369-1.4063-1.3155l-2.3535,3.3575c-.4624.6591-.7124,1.0859-.7495,1.2793-.0381.1943.0034.4023.1235.624.1201.2226.3819.4756.7852.7578l.8515.5977c1.3409.9394,2.5933,1.4335,3.7564,1.4814,1.1631.0469,2.2925-.334,3.3872-1.1436l.4077.2862-3.311,3.331-12.3667-8.6689.2236-.3193.4814.3369c.4112.289.7876.4609,1.1294.5156.2388.0449.48-.002.7232-.1387.1704-.0849.4648-.4267.8833-1.0234l5.5088-7.8584c.3803-.542.5947-.8838.644-1.0235.0703-.2578.0518-.5117-.0556-.7607-.1529-.3428-.4595-.6758-.92-.998l-.4814-.3379.2383-.3399,11.9839,8.4014-2.4766,3.5322-.4072-.2851c.396-1.003.542-1.8194.4384-2.4502-.104-.6309-.435-1.2754-.9926-1.9327-.3145-.374-1.0191-.9443-2.1133-1.7119l-1.4683-1.0293Z" fill="#124789" stroke-width="0"/><path d="M141.8281,393.3615l-1.9404,3.5976c-.374.6934-.5571,1.1592-.5483,1.3975.0088.2383.1123.4795.311.7246.1987.2461.6519.5596,1.3594.9404l-.1851.3438-7.8799-4.25.1851-.3428c.7163.3857,1.2305.5918,1.542.6172.312.0254.5664-.0234.7637-.1455.1967-.1231.4829-.5303.8569-1.2246l4.4897-8.3242c.3741-.6944.5601-1.1612.5581-1.4004-.0024-.2393-.104-.4795-.3046-.7217-.2007-.2412-.6548-.5527-1.3623-.9346l.1967-.3652,7.1509,3.8564c1.8569,1.002,3.1582,1.8438,3.9028,2.5264.7452.6826,1.2344,1.459,1.4678,2.3281.2334.8692.1392,1.6944-.2827,2.4766-.5098.9453-1.3364,1.5039-2.4805,1.6777-.7368.1172-1.6298.0166-2.6797-.3017l1.3682,6.3535c.1753.8183.3311,1.3554.4678,1.6103.2056.3584.5019.6563.8882.8926l-.1851.3438-4.8291-2.6045-1.8091-8.5205-1.0215-.5508ZM145.2251,387.0618l-3.0327,5.624.6631.3574c1.0434.5635,1.8691.9063,2.4765,1.0283.6075.1231,1.1749.0547,1.7027-.2031.5273-.2588.9741-.7275,1.3403-1.4062.5293-.9815.645-1.8526.3477-2.6133-.2979-.7608-1.0567-1.4707-2.2769-2.1289l-1.2207-.6582Z" fill="#124789" stroke-width="0"/><path d="M172.6192,398.2961l-1.6221,4.5645-.4922-.1904c.2046-1.2246-.0132-2.3594-.6543-3.4034-.6406-1.0439-1.4907-1.7705-2.5493-2.1806-.8154-.3154-1.5332-.3819-2.1533-.2002-.6202.1826-1.021.5088-1.2027.9775-.1181.3057-.1382.6074-.0605.9073.1128.4042.3667.8623.7612,1.374.293.3564,1.0098,1.0791,2.1504,2.1679,1.6089,1.5225,2.6108,2.7598,3.0068,3.7139.3833.957.4024,1.8818.0572,2.7734-.439,1.1338-1.3492,1.9053-2.7305,2.3145s-2.8877.2979-4.5181-.333c-.5151-.1992-.9829-.4326-1.4023-.6982-.4199-.2657-.9307-.6504-1.5332-1.1534-.333-.2822-.6211-.4697-.8648-.5644-.206-.0801-.4497-.0977-.7304-.0537-.2813.0439-.5547.1718-.8199.3838l-.4355-.168,1.9893-5.1377.436.1689c-.2012,1.5762.0542,2.9414.7661,4.0938.7119,1.1523,1.6494,1.9531,2.811,2.4033.8999.3486,1.6954.4229,2.3868.2227.6914-.1993,1.1435-.5733,1.3554-1.1202.1241-.3212.1411-.6718.0518-1.0527-.0899-.3808-.2905-.7871-.603-1.2178-.3125-.4316-.9136-1.0712-1.8028-1.9189-1.2446-1.1836-2.1098-2.1143-2.5957-2.792-.4863-.6787-.8008-1.3486-.9428-2.0107-.1426-.6621-.0909-1.3096.1542-1.9434.418-1.0791,1.25-1.8154,2.4961-2.21,1.2466-.3935,2.5957-.3095,4.0484.253.5244.2031,1.0156.4511,1.4731.7451.3506.2353.7539.5644,1.2095.9883.4551.4238.791.6767,1.0063.7607.2154.083.4029.0928.5625.0283.1597-.0634.3682-.2754.6255-.6338l.3658.1416Z" fill="#124789" stroke-width="0"/><path d="M183.7315,416.8322l-.1065.375-8.7876-2.4922.1065-.375.5654.1601c.4834.1377.8955.1758,1.2363.1153.2403-.0362.4527-.1592.6372-.3682.1328-.1367.2989-.5556.4976-1.2578l2.6182-9.2324c.2016-.71.2817-1.169.2417-1.376-.0406-.208-.1797-.417-.4175-.6289-.2373-.2109-.5884-.3818-1.0523-.5137l-.5659-.1601.1133-.3994,8.7871,2.4912-.1133.3994-.5508-.1563c-.4834-.1367-.9004-.1767-1.2509-.1191-.2276.0312-.4444.1484-.6475.3525-.1328.1367-.2988.5557-.498,1.2578l-2.6182,9.2325c-.2036.7177-.2822,1.1797-.2359,1.3838.0459.205.1875.415.4244.6308.2368.2149.5918.3897,1.0654.5244l.5513.1563Z" fill="#124789" stroke-width="0"/><path d="M207.9215,407.2316l-.6992,3.8994-.4444-.0801c-.1162-.9492-.3027-1.6465-.5595-2.0927-.2569-.4473-.6504-.8409-1.1817-1.1836-.3037-.1817-.8564-.3448-1.6572-.4883l-1.291-.2315-1.9834,11.0684c-.1318.7344-.165,1.2012-.0986,1.4004.0664.1992.2285.3945.4853.5849.2559.1914.6319.3311,1.127.42l.5781.1035-.0684.3838-9.0058-1.6143.0683-.3838.5645.1006c.4941.0889.9082.0869,1.2412-.0068.2354-.0606.4395-.2022.6123-.4268.1289-.1474.2578-.5801.3857-1.2988l1.9844-11.0674-1.2617-.2266c-1.1475-.205-2.0234-.1543-2.6309.1543-.8349.4473-1.4462,1.1807-1.8339,2.2022l-.4747-.085.6993-3.9004,15.4443,2.7686Z" fill="#124789" stroke-width="0"/><path d="M229.3692,408.8538l-.0264.414c-.5752.0225-1.0205.1319-1.335.3301-.4511.2744-1.1855,1.0508-2.2031,2.3301l-4.1133,5.0303-.2246,3.5146c-.0478.7529-.0303,1.2227.0537,1.4082.083.1865.2588.3594.5254.5186.2666.1601.6358.2548,1.1074.2851l.9776.0625-.0254.3897-9.7925-.627.0254-.3887.917.0586c.5117.0332.9228-.0166,1.2334-.1474.2265-.0869.4082-.252.5449-.4951.1104-.1612.1895-.6055.2363-1.3331l.1866-2.9248-3.7071-6.5009c-.7246-1.2735-1.247-2.0293-1.5693-2.2686-.3223-.2392-.7637-.3808-1.3242-.4248l.0263-.4141,8.3633.5352-.0263.4141-.376-.0245c-.502-.0322-.8565.004-1.0645.1084-.208.1045-.3164.2237-.3252.3575-.0166.2675.2823.9384.8985,2.0107l2.8364,5.0215,3.4248-4.1924c.8506-1.0205,1.2871-1.707,1.3096-2.0586.0117-.1836-.0938-.3506-.3155-.499-.2695-.1934-.7949-.332-1.5742-.416l.0264-.4141,5.3096.3399Z" fill="#124789" stroke-width="0"/></g></svg>